<svg version="1.1" id="Layer_1" xmlns="http://www.w3.org/2000/svg" xmlns:xlink="http://www.w3.org/1999/xlink" x="0px" y="0px"
	 width="100%" viewBox="0 0 512 512" enable-background="new 0 0 512 512" xml:space="preserve">
<path fill="#FFFFFF" opacity="1.000000" stroke="none" 
	d="
M1.000000,202.000000 
	C1.000000,135.031967 1.000000,68.063934 1.000000,1.047952 
	C171.553253,1.047952 342.106506,1.047952 513.000000,1.047952 
	C513.000000,67.687714 513.000000,134.376007 512.630737,201.413452 
	C512.000610,200.491852 511.936646,199.139496 511.449066,197.962662 
	C504.844635,182.022614 493.434113,175.216141 477.210052,175.112915 
	C427.388977,174.795944 377.564636,174.997528 327.741547,174.997528 
	C325.592346,174.997528 323.443146,174.997528 321.641937,174.997528 
	C315.202484,156.120377 308.752747,137.665726 302.624207,119.105011 
	C297.652924,104.049324 293.360931,88.765724 288.224182,73.769371 
	C283.553375,60.133308 272.932159,53.135784 259.098267,52.200188 
	C246.431152,51.343502 235.392654,56.106609 228.987915,67.698700 
	C225.806107,73.457581 224.283493,80.152039 222.159851,86.473495 
	C212.267975,115.918549 202.428329,145.381149 192.516434,174.997528 
	C190.793503,174.997528 189.138016,174.997528 187.482529,174.997528 
	C141.491989,174.997528 95.501381,174.955139 49.511013,175.042236 
	C42.433769,175.055634 35.293568,175.186905 28.298071,176.125336 
	C20.451006,177.177979 13.574097,180.892288 8.990313,187.530563 
	C5.875238,192.041855 3.632715,197.155640 1.000000,202.000000 
z"/>
<path fill="#020101" opacity="1.000000" stroke="none" 
	d="
M1.000000,202.468658 
	C3.632715,197.155640 5.875238,192.041855 8.990313,187.530563 
	C13.574097,180.892288 20.451006,177.177979 28.298071,176.125336 
	C35.293568,175.186905 42.433769,175.055634 49.511013,175.042236 
	C95.501381,174.955139 141.491989,174.997528 187.482529,174.997528 
	C189.138016,174.997528 190.793503,174.997528 192.516434,174.997528 
	C202.428329,145.381149 212.267975,115.918549 222.159851,86.473495 
	C224.283493,80.152039 225.806107,73.457581 228.987915,67.698700 
	C235.392654,56.106609 246.431152,51.343502 259.098267,52.200188 
	C272.932159,53.135784 283.553375,60.133308 288.224182,73.769371 
	C293.360931,88.765724 297.652924,104.049324 302.624207,119.105011 
	C308.752747,137.665726 315.202484,156.120377 321.641937,174.997528 
	C323.443146,174.997528 325.592346,174.997528 327.741547,174.997528 
	C377.564636,174.997528 427.388977,174.795944 477.210052,175.112915 
	C493.434113,175.216141 504.844635,182.022614 511.449066,197.962662 
	C511.936646,199.139496 512.000610,200.491852 512.630737,201.881302 
	C513.000000,279.354218 513.000000,356.708466 512.630737,434.650055 
	C512.094299,436.370636 512.156555,437.600677 511.725311,438.622498 
	C505.354950,453.718079 494.658905,461.869293 478.226990,461.895142 
	C353.443115,462.091309 228.658752,462.002441 103.874535,462.002350 
	C102.874931,462.002350 101.865486,462.091553 100.877380,461.984467 
	C95.661156,461.419098 92.357811,458.134583 91.824234,452.599670 
	C93.406700,444.801575 95.995392,442.887146 104.653076,442.886841 
	C228.292496,442.882477 351.931915,442.885864 475.571320,442.880402 
	C487.923676,442.879852 494.320404,437.308167 494.332397,425.949524 
	C494.407898,354.298706 494.446198,282.647552 494.174316,210.997696 
	C494.158783,206.905533 492.072998,202.258728 489.584015,198.875504 
	C486.187073,194.258118 480.443695,194.113647 474.969421,194.115158 
	C350.996735,194.149521 227.024063,194.141556 103.051392,194.141586 
	C81.056244,194.141602 59.060913,194.089569 37.066010,194.163635 
	C25.857157,194.201370 19.664515,200.281387 19.655729,211.464706 
	C19.599707,282.782288 19.602451,354.099945 19.652184,425.417511 
	C19.660189,436.897583 25.805290,442.819366 37.398476,442.873688 
	C47.562679,442.921356 57.727291,442.875824 67.891708,442.886230 
	C77.004036,442.895569 78.680817,444.185181 81.086670,453.394531 
	C80.476547,459.115082 76.466812,461.760712 72.152443,461.808197 
	C57.312534,461.971527 42.425987,461.854187 27.633753,460.784912 
	C19.813862,460.219604 13.100771,455.742798 8.640392,449.023315 
	C5.707589,444.605133 3.520829,439.691681 0.999993,435.000000 
	C1.000000,357.645782 1.000000,280.291534 1.000000,202.468658 
M225.507248,138.998184 
	C221.419113,150.923828 217.330963,162.849487 213.187592,174.936249 
	C242.543182,174.936249 271.519104,174.936249 300.751404,174.936249 
	C293.591278,153.842697 286.476593,132.883026 279.314758,111.784492 
	C266.607330,121.909821 249.509476,123.150627 234.455536,111.835846 
	C231.598602,120.746155 228.781967,129.530762 225.507248,138.998184 
M250.516800,99.254196 
	C258.620789,102.241547 265.730988,100.178238 269.660400,93.698921 
	C273.364410,87.591263 272.220520,79.877716 266.897522,75.068047 
	C260.550598,69.333183 251.068924,70.039337 245.599274,76.654213 
	C239.697754,83.791374 241.423996,92.918579 250.516800,99.254196 
z"/>
<path fill="#FFFFFF" opacity="1.000000" stroke="none" 
	d="
M0.999993,435.468658 
	C3.520829,439.691681 5.707589,444.605133 8.640392,449.023315 
	C13.100771,455.742798 19.813862,460.219604 27.633753,460.784912 
	C42.425987,461.854187 57.312534,461.971527 72.152443,461.808197 
	C76.466812,461.760712 80.476547,459.115082 81.529541,453.388367 
	C85.280067,452.996460 88.514999,452.987457 91.749924,452.978455 
	C92.357811,458.134583 95.661156,461.419098 100.877380,461.984467 
	C101.865486,462.091553 102.874931,462.002350 103.874535,462.002350 
	C228.658752,462.002441 353.443115,462.091309 478.226990,461.895142 
	C494.658905,461.869293 505.354950,453.718079 511.725311,438.622498 
	C512.156555,437.600677 512.094299,436.370636 512.630737,435.118713 
	C513.000000,460.982941 513.000000,486.965912 513.000000,512.946167 
	C342.333313,512.943481 171.666656,512.943481 1.000000,512.943481 
	C1.000000,487.237122 1.000000,461.587219 0.999993,435.468658 
z"/>
<path fill="#FBD477" opacity="1.000000" stroke="none" 
	d="
M91.824234,452.599670 
	C88.514999,452.987457 85.280067,452.996460 81.602264,453.011597 
	C78.680817,444.185181 77.004036,442.895569 67.891708,442.886230 
	C57.727291,442.875824 47.562679,442.921356 37.398476,442.873688 
	C25.805290,442.819366 19.660189,436.897583 19.652184,425.417511 
	C19.602451,354.099945 19.599707,282.782288 19.655729,211.464706 
	C19.664515,200.281387 25.857157,194.201370 37.066010,194.163635 
	C59.060913,194.089569 81.056244,194.141602 103.051392,194.141586 
	C227.024063,194.141556 350.996735,194.149521 474.969421,194.115158 
	C480.443695,194.113647 486.187073,194.258118 489.584015,198.875504 
	C492.072998,202.258728 494.158783,206.905533 494.174316,210.997696 
	C494.446198,282.647552 494.407898,354.298706 494.332397,425.949524 
	C494.320404,437.308167 487.923676,442.879852 475.571320,442.880402 
	C351.931915,442.885864 228.292496,442.882477 104.653076,442.886841 
	C95.995392,442.887146 93.406700,444.801575 91.824234,452.599670 
M333.267578,361.290100 
	C333.268005,340.139282 333.269348,318.988464 333.268433,297.837646 
	C333.268097,290.010193 333.254547,282.182709 333.262665,274.355255 
	C333.266998,270.180725 331.758728,266.855865 327.836578,265.024567 
	C321.423401,262.030151 314.944855,266.670685 314.893433,274.511627 
	C314.779907,291.831268 314.861298,309.152130 314.842102,326.472504 
	C314.840576,327.834534 314.674896,329.196411 314.516144,331.615723 
	C312.875427,329.150055 311.854370,327.654694 310.872437,326.134033 
	C298.782867,307.411987 286.683411,288.696259 274.625824,269.953644 
	C271.979004,265.839386 268.643188,263.074982 263.474365,264.458557 
	C258.366821,265.825745 256.446472,269.745117 256.440704,274.693512 
	C256.406738,303.838287 256.393890,332.983215 256.487122,362.127747 
	C256.493744,364.203278 256.990662,366.504578 257.982361,368.302155 
	C260.031342,372.016205 263.463593,373.557465 267.695740,372.647095 
	C272.286621,371.659576 274.955811,368.134918 274.983856,362.653168 
	C275.071625,345.499786 275.019165,328.345673 275.020996,311.191864 
	C275.021149,309.615265 275.021027,308.038666 275.021027,305.179138 
	C276.797882,307.737823 277.838776,309.145935 278.785980,310.614502 
	C290.865356,329.342896 302.960724,348.061157 314.977600,366.829620 
	C317.602966,370.930054 320.796295,373.784546 325.996368,372.747131 
	C330.524750,371.843750 332.809937,368.354858 333.267578,361.290100 
M113.129601,357.377441 
	C115.224457,361.155731 117.152878,365.039520 119.461411,368.682404 
	C121.730331,372.262787 125.259697,373.813904 129.382401,372.629150 
	C133.352295,371.488342 136.210449,368.767883 136.037292,364.374146 
	C135.937332,361.836975 135.102234,359.139252 133.919388,356.867096 
	C128.792358,347.018555 123.415421,337.300140 118.045822,327.380066 
	C119.058731,326.750916 119.891296,326.226868 120.730453,325.713593 
	C133.129913,318.128937 139.354050,304.271179 136.442566,290.727509 
	C133.346649,276.325897 122.282150,265.989502 107.505432,264.433502 
	C100.910652,263.739075 94.201942,264.061096 87.544601,264.042023 
	C78.164902,264.015167 75.033936,267.210846 75.029984,276.702698 
	C75.018356,304.681580 75.022095,332.660492 75.036575,360.639374 
	C75.037346,362.132050 75.025238,363.656769 75.305748,365.111328 
	C76.198395,369.739960 79.980247,372.956329 84.328789,372.950012 
	C88.690598,372.943695 92.638184,369.811829 93.169807,365.090851 
	C93.725594,360.155365 93.608368,355.137054 93.660568,350.153625 
	C93.729675,343.556458 93.677589,336.958008 93.677589,330.360138 
	C94.243324,330.018524 94.809067,329.676941 95.374802,329.335327 
	C96.984978,330.719635 99.110352,331.805176 100.116364,333.539886 
	C104.533699,341.156708 108.627403,348.961273 113.129601,357.377441 
M193.501160,264.023499 
	C188.838425,264.024689 184.172852,263.922974 179.513626,264.051300 
	C172.644821,264.240387 169.042389,267.778687 169.024811,274.683258 
	C168.950638,303.825287 168.954727,332.967712 169.019348,362.109802 
	C169.035751,369.502899 172.670395,372.928223 180.245956,372.993011 
	C187.905640,373.058533 195.566330,373.008057 203.226578,373.007629 
	C208.888489,373.007294 214.552475,373.101044 220.211761,372.978912 
	C226.267639,372.848175 230.107758,369.444305 230.391113,364.222687 
	C230.687866,358.754791 227.040970,354.955719 220.721176,354.445129 
	C217.742279,354.204437 214.729919,354.367859 211.732712,354.365662 
	C203.808578,354.359924 195.884430,354.363708 187.878601,354.363708 
	C187.878601,345.267395 187.878601,336.856934 187.878601,328.023621 
	C189.404282,328.023621 190.706604,328.023712 192.008942,328.023590 
	C201.334457,328.022827 210.660706,328.092682 219.985245,327.996765 
	C226.353546,327.931274 230.283661,324.422852 230.419571,318.983734 
	C230.555618,313.539459 226.822327,309.951599 220.428604,309.515411 
	C218.273285,309.368408 216.100784,309.464691 213.936142,309.463806 
	C205.332031,309.460327 196.727905,309.462372 187.884857,309.462372 
	C187.884857,300.334320 187.884857,291.770142 187.884857,282.680847 
	C189.717178,282.680847 191.339188,282.680878 192.961197,282.680817 
	C201.620605,282.680664 210.280807,282.753082 218.939178,282.658203 
	C226.352661,282.576996 230.564651,278.979736 230.425522,273.103973 
	C230.290741,267.410828 226.142166,264.077118 218.980118,264.034790 
	C210.820572,263.986572 202.660522,264.023529 193.501160,264.023499 
M422.404633,282.683289 
	C424.401764,282.680115 426.420166,282.856567 428.389954,282.622894 
	C430.333740,282.392303 432.439575,282.127625 434.101440,281.205780 
	C437.786041,279.161957 439.464813,275.817932 438.622345,271.566650 
	C437.701874,266.921539 434.207092,264.131989 428.801727,264.067017 
	C417.652679,263.932953 406.500946,264.022705 395.350311,264.022186 
	C384.865387,264.021698 374.378448,263.898285 363.896210,264.067017 
	C356.479462,264.186371 351.983826,269.869904 354.119385,276.241882 
	C355.813477,281.296692 360.013245,282.638336 364.817108,282.669464 
	C372.074646,282.716461 379.332733,282.681732 386.957062,282.681732 
	C386.957062,285.548004 386.956909,287.850464 386.957092,290.152924 
	C386.957825,300.637848 386.882935,311.123566 386.987762,321.607452 
	C387.050934,327.925995 390.660675,331.903900 396.067749,332.010345 
	C401.372070,332.114777 405.087860,328.209564 405.498138,321.943115 
	C405.650024,319.622742 405.539459,317.284882 405.539886,314.954987 
	C405.541870,304.358490 405.540741,293.761993 405.540741,282.683258 
	C411.193848,282.683258 416.312317,282.683258 422.404633,282.683289 
M390.225525,340.694916 
	C389.139648,343.201355 387.376740,345.638885 387.113159,348.229004 
	C386.611481,353.158936 386.831604,358.180573 387.000916,363.155701 
	C387.199127,368.978241 391.034943,372.923309 396.191284,372.948730 
	C401.090485,372.972931 405.009277,369.306183 405.374451,363.722107 
	C405.709564,358.597168 405.751434,353.419861 405.447113,348.293823 
	C404.939789,339.747437 398.675049,336.400543 390.225525,340.694916 
z"/>
<path fill="#FFFFFF" opacity="1.000000" stroke="none" 
	d="
M225.736298,138.656769 
	C228.781967,129.530762 231.598602,120.746155 234.455536,111.835846 
	C249.509476,123.150627 266.607330,121.909821 279.314758,111.784492 
	C286.476593,132.883026 293.591278,153.842697 300.751404,174.936249 
	C271.519104,174.936249 242.543182,174.936249 213.187592,174.936249 
	C217.330963,162.849487 221.419113,150.923828 225.736298,138.656769 
z"/>
<path fill="#CBD8E1" opacity="1.000000" stroke="none" 
	d="
M250.166901,99.104424 
	C241.423996,92.918579 239.697754,83.791374 245.599274,76.654213 
	C251.068924,70.039337 260.550598,69.333183 266.897522,75.068047 
	C272.220520,79.877716 273.364410,87.591263 269.660400,93.698921 
	C265.730988,100.178238 258.620789,102.241547 250.166901,99.104424 
z"/>
<path fill="#040302" opacity="1.000000" stroke="none" 
	d="
M333.266663,361.755585 
	C332.809937,368.354858 330.524750,371.843750 325.996368,372.747131 
	C320.796295,373.784546 317.602966,370.930054 314.977600,366.829620 
	C302.960724,348.061157 290.865356,329.342896 278.785980,310.614502 
	C277.838776,309.145935 276.797882,307.737823 275.021027,305.179138 
	C275.021027,308.038666 275.021149,309.615265 275.020996,311.191864 
	C275.019165,328.345673 275.071625,345.499786 274.983856,362.653168 
	C274.955811,368.134918 272.286621,371.659576 267.695740,372.647095 
	C263.463593,373.557465 260.031342,372.016205 257.982361,368.302155 
	C256.990662,366.504578 256.493744,364.203278 256.487122,362.127747 
	C256.393890,332.983215 256.406738,303.838287 256.440704,274.693512 
	C256.446472,269.745117 258.366821,265.825745 263.474365,264.458557 
	C268.643188,263.074982 271.979004,265.839386 274.625824,269.953644 
	C286.683411,288.696259 298.782867,307.411987 310.872437,326.134033 
	C311.854370,327.654694 312.875427,329.150055 314.516144,331.615723 
	C314.674896,329.196411 314.840576,327.834534 314.842102,326.472504 
	C314.861298,309.152130 314.779907,291.831268 314.893433,274.511627 
	C314.944855,266.670685 321.423401,262.030151 327.836578,265.024567 
	C331.758728,266.855865 333.266998,270.180725 333.262665,274.355255 
	C333.254547,282.182709 333.268097,290.010193 333.268433,297.837646 
	C333.269348,318.988464 333.268005,340.139282 333.266663,361.755585 
z"/>
<path fill="#040302" opacity="1.000000" stroke="none" 
	d="
M112.984024,357.037598 
	C108.627403,348.961273 104.533699,341.156708 100.116364,333.539886 
	C99.110352,331.805176 96.984978,330.719635 95.374802,329.335327 
	C94.809067,329.676941 94.243324,330.018524 93.677589,330.360138 
	C93.677589,336.958008 93.729675,343.556458 93.660568,350.153625 
	C93.608368,355.137054 93.725594,360.155365 93.169807,365.090851 
	C92.638184,369.811829 88.690598,372.943695 84.328789,372.950012 
	C79.980247,372.956329 76.198395,369.739960 75.305748,365.111328 
	C75.025238,363.656769 75.037346,362.132050 75.036575,360.639374 
	C75.022095,332.660492 75.018356,304.681580 75.029984,276.702698 
	C75.033936,267.210846 78.164902,264.015167 87.544601,264.042023 
	C94.201942,264.061096 100.910652,263.739075 107.505432,264.433502 
	C122.282150,265.989502 133.346649,276.325897 136.442566,290.727509 
	C139.354050,304.271179 133.129913,318.128937 120.730453,325.713593 
	C119.891296,326.226868 119.058731,326.750916 118.045822,327.380066 
	C123.415421,337.300140 128.792358,347.018555 133.919388,356.867096 
	C135.102234,359.139252 135.937332,361.836975 136.037292,364.374146 
	C136.210449,368.767883 133.352295,371.488342 129.382401,372.629150 
	C125.259697,373.813904 121.730331,372.262787 119.461411,368.682404 
	C117.152878,365.039520 115.224457,361.155731 112.984024,357.037598 
M100.420197,282.669769 
	C98.317604,282.669769 96.215019,282.669769 93.932465,282.669769 
	C93.932465,292.591919 93.932465,301.960144 93.932465,312.090240 
	C98.797134,311.743896 103.466164,311.917114 107.900322,310.979553 
	C114.888283,309.501953 119.210495,302.705231 118.400108,295.626465 
	C117.442780,287.264252 111.751816,282.930908 100.420197,282.669769 
z"/>
<path fill="#050402" opacity="1.000000" stroke="none" 
	d="
M194.000931,264.023499 
	C202.660522,264.023529 210.820572,263.986572 218.980118,264.034790 
	C226.142166,264.077118 230.290741,267.410828 230.425522,273.103973 
	C230.564651,278.979736 226.352661,282.576996 218.939178,282.658203 
	C210.280807,282.753082 201.620605,282.680664 192.961197,282.680817 
	C191.339188,282.680878 189.717178,282.680847 187.884857,282.680847 
	C187.884857,291.770142 187.884857,300.334320 187.884857,309.462372 
	C196.727905,309.462372 205.332031,309.460327 213.936142,309.463806 
	C216.100784,309.464691 218.273285,309.368408 220.428604,309.515411 
	C226.822327,309.951599 230.555618,313.539459 230.419571,318.983734 
	C230.283661,324.422852 226.353546,327.931274 219.985245,327.996765 
	C210.660706,328.092682 201.334457,328.022827 192.008942,328.023590 
	C190.706604,328.023712 189.404282,328.023621 187.878601,328.023621 
	C187.878601,336.856934 187.878601,345.267395 187.878601,354.363708 
	C195.884430,354.363708 203.808578,354.359924 211.732712,354.365662 
	C214.729919,354.367859 217.742279,354.204437 220.721176,354.445129 
	C227.040970,354.955719 230.687866,358.754791 230.391113,364.222687 
	C230.107758,369.444305 226.267639,372.848175 220.211761,372.978912 
	C214.552475,373.101044 208.888489,373.007294 203.226578,373.007629 
	C195.566330,373.008057 187.905640,373.058533 180.245956,372.993011 
	C172.670395,372.928223 169.035751,369.502899 169.019348,362.109802 
	C168.954727,332.967712 168.950638,303.825287 169.024811,274.683258 
	C169.042389,267.778687 172.644821,264.240387 179.513626,264.051300 
	C184.172852,263.922974 188.838425,264.024689 194.000931,264.023499 
z"/>
<path fill="#060503" opacity="1.000000" stroke="none" 
	d="
M421.917725,282.683289 
	C416.312317,282.683258 411.193848,282.683258 405.540741,282.683258 
	C405.540741,293.761993 405.541870,304.358490 405.539886,314.954987 
	C405.539459,317.284882 405.650024,319.622742 405.498138,321.943115 
	C405.087860,328.209564 401.372070,332.114777 396.067749,332.010345 
	C390.660675,331.903900 387.050934,327.925995 386.987762,321.607452 
	C386.882935,311.123566 386.957825,300.637848 386.957092,290.152924 
	C386.956909,287.850464 386.957062,285.548004 386.957062,282.681732 
	C379.332733,282.681732 372.074646,282.716461 364.817108,282.669464 
	C360.013245,282.638336 355.813477,281.296692 354.119385,276.241882 
	C351.983826,269.869904 356.479462,264.186371 363.896210,264.067017 
	C374.378448,263.898285 384.865387,264.021698 395.350311,264.022186 
	C406.500946,264.022705 417.652679,263.932953 428.801727,264.067017 
	C434.207092,264.131989 437.701874,266.921539 438.622345,271.566650 
	C439.464813,275.817932 437.786041,279.161957 434.101440,281.205780 
	C432.439575,282.127625 430.333740,282.392303 428.389954,282.622894 
	C426.420166,282.856567 424.401764,282.680115 421.917725,282.683289 
z"/>
<path fill="#060503" opacity="1.000000" stroke="none" 
	d="
M390.521484,340.454590 
	C398.675049,336.400543 404.939789,339.747437 405.447113,348.293823 
	C405.751434,353.419861 405.709564,358.597168 405.374451,363.722107 
	C405.009277,369.306183 401.090485,372.972931 396.191284,372.948730 
	C391.034943,372.923309 387.199127,368.978241 387.000916,363.155701 
	C386.831604,358.180573 386.611481,353.158936 387.113159,348.229004 
	C387.376740,345.638885 389.139648,343.201355 390.521484,340.454590 
z"/>
<path fill="#F9D275" opacity="1.000000" stroke="none" 
	d="
M100.902130,282.669739 
	C111.751816,282.930908 117.442780,287.264252 118.400108,295.626465 
	C119.210495,302.705231 114.888283,309.501953 107.900322,310.979553 
	C103.466164,311.917114 98.797134,311.743896 93.932465,312.090240 
	C93.932465,301.960144 93.932465,292.591919 93.932465,282.669769 
	C96.215019,282.669769 98.317604,282.669769 100.902130,282.669739 
z"/>
</svg>